<?xml version="1.0" encoding="utf-8"?>
<!-- Generator: Adobe Illustrator 22.1.0, SVG Export Plug-In . SVG Version: 6.00 Build 0)  -->
<svg version="1.1" id="Capa_1" xmlns="http://www.w3.org/2000/svg" xmlns:xlink="http://www.w3.org/1999/xlink" x="0px" y="0px"
	 viewBox="0 0 241.5 92.3" style="enable-background:new 0 0 241.5 92.3;" xml:space="preserve">
<style type="text/css">
	.st0{fill:none;stroke:#FFFFFF;stroke-width:3;stroke-miterlimit:10;}
	.st1{fill:none;stroke:#FFFFFF;stroke-width:2;stroke-miterlimit:10;}
	.st2{fill:none;stroke:#000000;stroke-miterlimit:10;}
	.st3{fill:none;stroke:#FFFFFF;stroke-width:3;stroke-miterlimit:10;stroke-dasharray:1.9534,1.9534;}
	.st4{fill:none;stroke:#FFFFFF;stroke-width:2.3;stroke-miterlimit:10;}
</style>
<polygon class="st0" points="3.8,5.4 3.8,85.6 53.8,45.1 "/>
<line class="st1" x1="33.8" y1="85.2" x2="33.8" y2="5"/>
<polygon class="st1" points="106.8,84.9 106.8,5.1 153.3,5.1 "/>
<polyline class="st0" points="106.8,31 137.4,31 137.8,31.3 107.2,5.4 "/>
<path class="st2" d="M268.8,29"/>
<line class="st0" x1="202.1" y1="46.9" x2="195.9" y2="54.2"/>
<g>
	<g>
		<line class="st0" x1="228.4" y1="15.7" x2="227.8" y2="16.5"/>
		<line class="st3" x1="226.6" y1="17.8" x2="203.1" y2="45.7"/>
		<line class="st0" x1="202.6" y1="46.3" x2="202.1" y2="46.9"/>
	</g>
</g>
<polyline class="st0" points="169.8,83.5 169.8,85 195.9,54 195.8,53.7 156.3,5.6 236.8,5.6 228.4,15.5 "/>
<line class="st1" x1="168.9" y1="21.6" x2="169.3" y2="83.5"/>
<polygon class="st4" points="77.4,86.4 103.3,46.1 77.4,5.8 85.2,5.8 59.3,46.1 85.2,86.4 "/>
</svg>
