<?xml version="1.0" encoding="utf-8"?>
<!-- Generator: Adobe Illustrator 22.1.0, SVG Export Plug-In . SVG Version: 6.00 Build 0)  -->
<svg version="1.1" id="Capa_1" xmlns="http://www.w3.org/2000/svg" xmlns:xlink="http://www.w3.org/1999/xlink" x="0px" y="0px"
	 viewBox="0 0 237 103" style="enable-background:new 0 0 237 103;" xml:space="preserve">
<style type="text/css">
	.st0{fill:none;stroke:#000000;stroke-miterlimit:10;}
</style>
<polygon class="st0" points="2.5,2 2.5,102 52.5,51.5 "/>
<line class="st0" x1="32.5" y1="101.5" x2="32.5" y2="1.5"/>
<polygon class="st0" points="74.1,102 100,52 74.1,2 81.9,2 56,52 81.9,102 "/>
<polygon class="st0" points="105.5,101.5 105.5,2.5 152,2.5 "/>
<polyline class="st0" points="105.5,34.7 136.2,34.7 136.5,35 105.5,2.5 "/>
<path class="st0" d="M267.5,25.5"/>
<polyline class="st0" points="168.2,22.5 168.2,25.5 168.2,25 168.5,101.5 194.7,62.8 194.5,62.5 155,2.5 235.5,2.5 227.1,14.9 
	200.8,53.8 194.7,62.8 "/>
</svg>
