<?xml version="1.0" encoding="UTF-8"?>
<!DOCTYPE svg PUBLIC "-//W3C//DTD SVG 1.1//EN" "http://www.w3.org/Graphics/SVG/1.1/DTD/svg11.dtd">
<!-- Creator: CorelDRAW 2018 (64 Bit Versión de evaluación) -->
<svg xmlns="http://www.w3.org/2000/svg" xml:space="preserve" width="19.8436mm" height="15.875mm" version="1.1" style="shape-rendering:geometricPrecision; text-rendering:geometricPrecision; image-rendering:optimizeQuality; fill-rule:evenodd; clip-rule:evenodd"
viewBox="0 0 1984.36 1587.5"
 xmlns:xlink="http://www.w3.org/1999/xlink">
 <defs>
  <style type="text/css">
   <![CDATA[
    .str0 {stroke:white;stroke-width:20;stroke-miterlimit:22.9256}
    .fil1 {fill:none}
    .fil0 {fill:white}
   ]]>
  </style>
 </defs>
 <g id="Capa_x0020_1">
  <metadata id="CorelCorpID_0Corel-Layer"/>
  <path class="fil0" d="M906.23 1043.79c10.45,-1.21 18.67,-6.64 29.23,-25.24 10.55,-18.6 30.85,-50.03 30.85,-50.03l63.85 -103.57 93.03 -150.23 66.46 -110.2c0,0 31.11,-54.36 41.16,-109.46 10.05,-55.1 12.64,-106.86 -1.96,-177.96 -14.57,-71.12 -52.17,-141.85 -90.42,-184.67 -38.25,-42.81 -110.54,-99.79 -210.38,-106.49 -99.84,-6.7 -161.74,28.3 -205.2,61.44 -43.43,33.13 -103.41,108.71 -124.8,182.05 -21.38,73.35 -23,97.92 -23.33,157.5 -0.32,59.57 15.88,103.12 28.53,138.12 12.64,35 39.21,70.74 68.06,120.26 28.86,49.52 132.26,214.82 132.26,214.82l67.42 108.34c16.7,29.79 23.22,34.58 35.24,35.32zm1.43 -907.32c131.04,0 237.27,110.89 237.27,247.66 0,136.78 -106.23,247.67 -237.27,247.67 -131.04,0 -237.27,-110.89 -237.27,-247.67 0,-136.77 106.23,-247.66 237.27,-247.66zm-37.18 395.73l0 57.47c0,0 3.6,10.07 12.94,10.07 9.34,0 12.93,-9.35 12.93,-9.35l0 -59.65c118.21,-9.56 146.09,-105.83 144.98,-146.02 -1.18,-46.66 -24.97,-140.54 -134.91,-143.57 -9.34,0 -10.78,-0.72 -10.78,-0.72l0 -63.23c0,0 -0.72,-7.9 -12.22,-8.63 -11.51,-0.71 -12.94,8.63 -12.94,8.63l0 65.39c0,0 -17.24,3.59 -22.27,5.02 -18.36,7.88 -35.7,18.08 -51.75,30.18 -7.17,6.48 -9.34,9.35 -9.34,9.35 0,0 -6.47,7.92 1.44,16.52 7.9,8.64 16.53,1.44 20.12,-1.43 2.88,-2.88 25.87,-19.4 28.75,-21.56 3.59,-2.15 15.08,-7.18 20.83,-8.63l11.5 -2.86 0 234.98c0,0 -15.81,0 -33.79,-6.46 -17.22,-6.47 -36.63,-23.71 -38.06,-25.15 -1.44,-1.45 -12.22,-9.35 -20.12,0 -8.62,10.04 0,17.97 0,17.97 0,0 15.08,13.66 23.72,18.67 8.61,5.03 17.24,9.35 25.85,12.23 10.79,3.59 27.32,7.9 37.38,8.62l5.74 2.16 0 0zm26.6 -28.04c110.72,-10.7 121.43,-95.57 121.72,-119.73 -1.34,-39.45 -28.99,-120.5 -116.7,-117.42l-5.02 0 0 237.17 0 -0.02z"/>
 </g>
 <g id="Capa_x0020_1_0">
  <metadata id="CorelCorpID_1Corel-Layer"/>
  <path class="fil1 str0" d="M601.53 1331.98l24.43 17.22 -265.35 0.11 212.98 150.28 616.99 0.97 -62.8 -45.05 34.71 -0.03 62.9 45.13 614.21 0.96 -216.27 -152.76 -297.62 0.09 -24.33 -17.17 297.59 -0.13 -213.5 -150.78 -605.8 -0.01 52.57 37.75 -34.69 0 -52.61 -37.75 -623.14 0 214.38 151.31 265.35 -0.14zm1297.58 186.9l-1336.16 -2.09 -500.57 -353.19 1333.89 -0.03 502.84 355.31z"/>
 </g>
</svg>
