<?xml version="1.0" encoding="UTF-8"?>
<!DOCTYPE svg PUBLIC "-//W3C//DTD SVG 1.1//EN" "http://www.w3.org/Graphics/SVG/1.1/DTD/svg11.dtd">
<!-- Creator: CorelDRAW 2018 (64 Bit Versión de evaluación) -->
<svg xmlns="http://www.w3.org/2000/svg" xml:space="preserve" width="20.1082mm" height="15.875mm" version="1.1" style="shape-rendering:geometricPrecision; text-rendering:geometricPrecision; image-rendering:optimizeQuality; fill-rule:evenodd; clip-rule:evenodd"
viewBox="0 0 2010.82 1587.5"
 xmlns:xlink="http://www.w3.org/1999/xlink">
 <defs>
  <style type="text/css">
   <![CDATA[
    .str3 {stroke:#FEFEFE;stroke-width:1.54;stroke-miterlimit:22.9256}
    .str0 {stroke:white;stroke-width:20;stroke-miterlimit:22.9256}
    .str2 {stroke:#FEFEFE;stroke-width:10;stroke-miterlimit:22.9256}
    .str1 {stroke:#FEFEFE;stroke-width:7.62;stroke-miterlimit:22.9256}
    .fil2 {fill:none}
    .fil3 {fill:#1A1A1A}
    .fil1 {fill:#FEFEFE}
    .fil0 {fill:white}
   ]]>
  </style>
 </defs>
 <g id="Capa_x0020_1">
  <metadata id="CorelCorpID_0Corel-Layer"/>
  <g id="_1544790197568">
   <path class="fil0" d="M1018.84 937.69c-10.5,-1.05 -18.76,-5.74 -29.36,-21.83 -10.6,-16.09 -31,-43.28 -31,-43.28l-64.14 -89.58 -93.46 -129.94 -66.76 -95.32c0,0 -31.25,-47.02 -41.35,-94.68 -10.1,-47.66 -12.7,-92.43 1.97,-153.93 14.64,-61.52 52.41,-122.7 90.83,-159.73 38.43,-37.03 111.05,-86.32 211.35,-92.11 100.3,-5.8 162.48,24.48 206.14,53.14 43.63,28.66 103.89,94.03 125.37,157.47 21.48,63.44 23.11,84.69 23.44,136.23 0.32,51.52 -15.95,89.19 -28.66,119.47 -12.7,30.27 -39.39,61.18 -68.37,104.02 -29,42.83 -132.87,185.81 -132.87,185.81l-67.73 93.71c-16.78,25.77 -23.33,29.91 -35.4,30.55z"/>
   <path class="fil1 str0" d="M1222.75 1134.81l0.69 43.53c11.7,-8.36 23.4,-16.71 35.09,-25.07 223.55,0 447.09,0 670.63,0 -76.9,54.03 -153.82,108.06 -230.73,162.09 -95.18,-0.04 -190.38,-0.1 -285.56,-0.14 -8.76,6.15 -17.53,12.29 -26.29,18.45 95.19,0.03 190.38,0.08 285.57,0.11 -76.41,53.67 -152.8,107.33 -229.21,160.99 -221.33,0.35 -442.68,0.7 -664.01,1.04 22.54,-16.09 45.06,-32.17 67.59,-48.26 -12.45,-0.01 -24.9,-0.01 -37.36,-0.02 -22.55,16.11 -45.12,32.23 -67.69,48.34 -220.33,0.34 -440.67,0.68 -661.01,1.03 77.59,-54.56 155.17,-109.1 232.76,-163.66 106.76,0.04 213.53,0.07 320.3,0.11 8.72,-6.13 17.45,-12.27 26.17,-18.4 -106.76,-0.04 -213.51,-0.09 -320.25,-0.13 76.58,-53.85 153.17,-107.69 229.76,-161.53 56.1,0 112.2,-0.02 168.3,-0.02 0,-6.15 0,-12.32 0,-18.47 -59.98,0 -119.95,0 -179.93,0 -180.38,126.88 -360.77,253.76 -541.15,380.64 479.32,-0.74 958.65,-1.5 1437.97,-2.24 179.57,-126.12 359.14,-252.24 538.71,-378.37 -256.78,-0.01 -513.57,-0.01 -770.35,-0.02z"/>
   <g>
    <line class="fil2 str1" x1="815.62" y1="1325.37" x2="815.57" y2= "1338.56" />
   </g>
   <path class="fil2 str0" d="M737.5 1067.41l355.39 0 130.72 -66.58m-486.03 76.66l-0.08 -10.21 133.35 -66.84 352.76 0.39 -0.31 325.55 -130.41 66.12 -224.23 0.06 0.03 -135.76 -74.89 0 -0.03 135.68 -56.27 0.02 0 -278.31m355.39 -46.91l0 325.22"/>
   <rect class="fil2 str2" x="908.25" y="1251.93" width="134.87" height="89.25"/>
   <path class="fil0 str1" d="M1097.84 1067.29l-89.56 -0.19 -17.51 23.77c-9.62,13.07 -6.74,23.78 6.42,23.81l41.73 0.09c13.16,0.03 31.79,-10.64 41.41,-23.7l17.51 -23.78z"/>
   <path class="fil2 str1" d="M1007.76 1066.9l-89.56 -0.2 -17.5 23.78c-9.62,13.06 -6.75,23.78 6.41,23.81l41.73 0.09c13.16,0.03 31.78,-10.64 41.41,-23.7l17.51 -23.78z"/>
   <path class="fil1 str1" d="M917.32 1066.9l-89.56 -0.2 -17.51 23.78c-9.63,13.06 -6.75,23.78 6.41,23.81l41.73 0.09c13.16,0.03 31.79,-10.64 41.42,-23.7l17.51 -23.78z"/>
   <path class="fil2 str1" d="M827.37 1066.79l-89.55 -0.2 -17.51 23.77c-9.63,13.07 -6.76,23.79 6.4,23.81l41.74 0.1c13.16,0.03 31.79,-10.64 41.41,-23.71l17.51 -23.77z"/>
   <rect class="fil2 str3" transform="matrix(-0.40195 0.202614 0.00299404 0.628985 1175.93 1084.03)" width="80.6" height="97.96"/>
   <g>
    <line class="fil2 str1" x1="867.26" y1="1396.13" x2="795.01" y2= "1396.13" />
   </g>
   <ellipse class="fil3" cx="1022.5" cy="371.82" rx="184.4" ry="180.28"/>
  </g>
 </g>
</svg>
