<?xml version="1.0" encoding="UTF-8"?>
<!DOCTYPE svg PUBLIC "-//W3C//DTD SVG 1.1//EN" "http://www.w3.org/Graphics/SVG/1.1/DTD/svg11.dtd">
<!-- Creator: CorelDRAW 2018 (64 Bit Versión de evaluación) -->
<svg xmlns="http://www.w3.org/2000/svg" xml:space="preserve" width="245.5mm" height="190mm" version="1.1" style="shape-rendering:geometricPrecision; text-rendering:geometricPrecision; image-rendering:optimizeQuality; fill-rule:evenodd; clip-rule:evenodd"
viewBox="0 0 24550 19000"
 xmlns:xlink="http://www.w3.org/1999/xlink">
 <defs>
  <style type="text/css">
   <![CDATA[
    .fil0 {fill:#FEFEFE}
   ]]>
  </style>
 </defs>
 <g id="Capa_x0020_1">
  <metadata id="CorelCorpID_0Corel-Layer"/>
  <path class="fil0" d="M14722.65 11029.45c0,1737.49 -1539.78,3145.78 -3439.29,3145.78 -716.88,0 -1382.46,-200.76 -1933.45,-543.94 -266.27,306.55 -562.37,587.03 -883.71,836.75 -870.1,675.91 -1926.4,1127.57 -3080.03,1267.05 -2.12,795.07 -3.41,1640.04 -3.41,2582.58 0,0 -134.31,409.63 -543.94,409.63 -409.75,0 -550.75,-429.82 -550.75,-429.82 -2.82,-1046.09 -4.35,-1859.01 -5.05,-2523.06 -1523.23,-59.76 -2793.56,-544.88 -3936.51,-1686.54 -235.52,-235.16 -235.17,-531.73 -20.66,-747.41 461.99,-348.11 794.72,0.94 842.15,43.21 531.61,475.73 1474.62,1238.87 3114.55,1307.43 1.17,-2500.98 17.49,-2634.94 3.87,-10125.1 -1061.11,264.28 -1684.42,624.37 -2644.1,1440.69 -201.47,171.3 -551.81,348.23 -852.95,67.04 -225.07,-250.31 -258.65,-533.26 -64.11,-723.57 1016.62,-994.9 2305.86,-1675.27 3543.9,-1916.42l15.15 -2.82 -6.34 -2799.67c0,0 60.58,-416.44 557.44,-389.67 496.98,27.01 530.56,376.17 530.56,376.17 7.16,973.77 13.27,1870.28 18.08,2702.34 2544.08,-32.88 5187.24,1455.01 5749.85,4566.74 1818.97,-72.67 3588.75,1230.18 3588.75,3142.61zm362.2 3630.78c0,0 23.48,443.33 560.73,446.74 537.37,3.28 587.74,-483.6 587.74,-483.6l0 -2847.57 3143.07 -16.79c0,0 460,-60.34 456.71,-537.25 -3.4,-476.9 -446.73,-587.62 -446.73,-587.62l-3146.36 -13.5 -6.69 -2182.69 4372.08 -9.98 -40.27 6390.18c0,0 60.35,423.13 570.83,419.72 510.36,-3.4 547.35,-466.8 547.35,-466.8l80.66 -6333.12 2222.96 -3.41c0,0 446.5,-97.33 449.9,-574.23 3.41,-476.67 -409.74,-580.81 -409.74,-580.81l-8529.21 0c-130.9,0 -420.31,241.74 -423.71,493.58 -3.41,251.83 10.68,6887.15 10.68,6887.15zm-9695.16 -35.92c1315.65,-217.09 2400.13,-903.91 3150.47,-1697.22 -436.75,-527.51 -696.1,-1184.87 -696.1,-1897.64 0,-1337.37 912.37,-2479.62 2198.78,-2934.68 -519.99,-2623.79 -2674.51,-3737.04 -4652.92,-3683.85 24.31,4793.81 9.87,7303.13 -0.23,10213.39zm5902 -5613.89c1268.58,0 2296.82,919.88 2296.82,2054.49 0,1134.85 -1028.24,2054.6 -2296.82,2054.6 -1268.57,0 -2296.81,-919.75 -2296.81,-2054.6 0,-1134.61 1028.24,-2054.49 2296.81,-2054.49z"/>
 </g>
</svg>
