<svg xmlns="http://www.w3.org/2000/svg" viewBox="0 0 79.5 61.5">
  <path d="M37.2 42.4c-1.8 0-1.8-.1-3.3-.6-1-.3-1-.4-1.7-.9-.2-.1-.4-.2-.6-.4-2-1.6-3-4.7-1.6-7.4.8-1.6 1.6-2.2 2.9-3 3.5-2 8.8-.7 10.6 2.9 1.3 2.6.5 5.8-1.5 7.4-1.3 1.2-2.8 2-4.8 2zm-11.5-6.5c0 1.7.5 3.6 1.3 4.9.3.5.6.7.9 1.3l-3.1 2.6c-1.4 1-5 2.7-7 2.7v-33c5.2 0 8.9 1.8 11.8 5.1.5.6 1.1 1.2 1.4 1.9.7 1.4 1.7 3.1 1.8 4.7-1.6.4-3.9 2.2-4.9 3.4-.8 1.1-1 1.3-1.5 2.6-.5 1.2-.7 2.3-.7 3.8zM14 2.6V11c-1.5 0-5.4 1.6-6.9 2.6-1.4.9-2.2 1.3-3.4 2.5-1.1 1-1.4 1.3-1.4 2.4 0 1.3 1.7 2.3 3.2 1 .2-.2.3-.2.5-.4 1.4-1.2 2.3-1.9 3.9-2.8 1.9-1 3.5-1.3 4.2-1.6v32.9c-1.1 0-3.9-.6-5-1.1-1.1-.5-1.7-.7-2.6-1.4-.4-.3-.7-.5-1.2-.8-1.2-1-1-1.7-2.9-1.7-1 0-1.6.9-1.6 2 0 1.5 4 4 5.3 4.7 2.2 1.1 5.6 2.1 8 2.1v7.5c0 .6.2 1.1.6 1.4 1.3 1.2 2.8.3 3.1-.6.2-.6.1-7.5.1-8.5.7-.3 2.7-.5 4.7-1.3 2.1-.9 3.6-1.4 5.6-3.1.8-.6 2-1.6 2.6-2.4 1.5.8.6.5 2.5 1.1 4.1 1.5 8.5.5 11.7-2.6l.1-.1c1.9-2 3-4.3 3-7.2 0-1.8-1-4.6-2.2-5.9-.5-.5-.7-.9-1.3-1.4-2.6-2.1-4.6-2.8-8.1-2.8-.2-1-.6-2.2-.9-3.1-.2-.6-.4-.8-.6-1.4-.5-1.2-1.5-2.7-2.3-3.7-.3-.4-.6-.6-1-1.1-.4-.6-.6-.6-1.1-1-3.4-3.2-8.1-4.6-12.8-4.6V2.2c0-.9-1.7-2.4-3.2-1-.4.3-.6.8-.6 1.4zm34.3 23.6v22.3c0 2 3.8 2.4 3.8-.4v-8.9h9.7c2.8 0 2.4-3.8.4-3.8H52.1v-7.1h14.2c0 .7-.1.7-.1 1.3v10.6c0 1.4-.3 8 0 8.9.6 1.8 3.3 1.7 3.6-.1.2-.9-.1-2 .1-2.9.2-1.4.1-9.8.1-12 0-2.1.1-3.8.1-5.9h6.4c3.1 0 2.7-3.8.7-3.8H50c-.9.2-1.7 1.1-1.7 1.8z" fill="#221e1f"/>
</svg>
