<?xml version="1.0" encoding="UTF-8"?>
<!DOCTYPE svg PUBLIC "-//W3C//DTD SVG 1.1//EN" "http://www.w3.org/Graphics/SVG/1.1/DTD/svg11.dtd">
<!-- Creator: CorelDRAW 2018 (64 Bit Versión de evaluación) -->
<svg xmlns="http://www.w3.org/2000/svg" xml:space="preserve" width="21.0342mm" height="16.1394mm" version="1.1" style="shape-rendering:geometricPrecision; text-rendering:geometricPrecision; image-rendering:optimizeQuality; fill-rule:evenodd; clip-rule:evenodd"
viewBox="0 0 2103.42 1613.94"
 xmlns:xlink="http://www.w3.org/1999/xlink">
 <defs>
  <style type="text/css">
   <![CDATA[
    .fil0 {fill:#231F20}
   ]]>
  </style>
 </defs>
 <g id="Capa_x0020_1">
  <metadata id="CorelCorpID_0Corel-Layer"/>
  <path class="fil0" d="M1270.58 938.81c0,147.99 -131.15,267.94 -292.94,267.94 -61.06,0 -117.75,-17.1 -164.68,-46.33 -22.68,26.11 -47.9,50 -75.27,71.27 -74.11,57.57 -164.08,96.04 -262.34,107.92 -0.18,67.72 -0.29,139.69 -0.29,219.97 0,0 -11.44,34.89 -46.33,34.89 -34.9,0 -46.91,-36.61 -46.91,-36.61 -0.24,-89.1 -0.37,-158.34 -0.43,-214.9 -129.74,-5.09 -237.94,-46.41 -335.29,-143.65 -20.06,-20.03 -20.03,-45.29 -1.76,-63.66 39.35,-29.65 67.69,0.08 71.73,3.68 45.28,40.52 125.6,105.52 265.28,111.36 0.1,-213.02 1.49,-224.43 0.33,-862.4 -90.38,22.51 -143.47,53.18 -225.21,122.71 -17.16,14.59 -47,29.66 -72.65,5.71 -19.17,-21.32 -22.03,-45.42 -5.46,-61.63 86.59,-84.74 196.4,-142.69 301.85,-163.23l1.29 -0.24 -0.54 -238.46c0,0 5.16,-35.47 47.48,-33.19 42.33,2.3 45.19,32.04 45.19,32.04 0.61,82.94 1.13,159.3 1.54,230.17 216.69,-2.8 441.82,123.93 489.74,388.97 154.93,-6.19 305.67,104.78 305.67,267.67zm-292.23 -171.97c108.05,0 195.63,78.35 195.63,174.99 0,96.66 -87.58,175 -195.63,175 -108.05,0 -195.63,-78.34 -195.63,-175 0,-96.64 87.58,-174.99 195.63,-174.99zm-502.7 478.16c112.06,-18.49 204.43,-76.99 268.34,-144.56 -37.2,-44.93 -59.29,-100.92 -59.29,-161.63 0,-113.91 77.71,-211.2 187.28,-249.96 -44.29,-223.48 -227.8,-318.3 -396.31,-313.77 2.07,408.31 0.84,622.04 -0.02,869.92zm825.78 3.06c0,0 2,37.76 47.76,38.05 45.77,0.28 50.06,-41.19 50.06,-41.19l0 -242.54 267.71 -1.43c0,0 39.18,-5.14 38.9,-45.76 -0.29,-40.62 -38.05,-50.05 -38.05,-50.05l-267.99 -1.15 -0.57 -185.91 372.39 -0.85 -3.43 544.28c0,0 5.14,36.04 48.62,35.75 43.47,-0.29 46.62,-39.76 46.62,-39.76l6.87 -539.42 189.34 -0.29c0,0 38.03,-8.29 38.32,-48.91 0.29,-40.6 -34.9,-49.47 -34.9,-49.47l-726.47 0c-11.15,0 -35.8,20.59 -36.09,42.04 -0.29,21.45 0.91,586.61 0.91,586.61z"/>
 </g>
</svg>
