<?xml version="1.0" encoding="UTF-8"?>
<!DOCTYPE svg PUBLIC "-//W3C//DTD SVG 1.1//EN" "http://www.w3.org/Graphics/SVG/1.1/DTD/svg11.dtd">
<!-- Creator: CorelDRAW 2018 (64 Bit Versión de evaluación) -->
<svg xmlns="http://www.w3.org/2000/svg" xml:space="preserve" width="20.1082mm" height="11.9062mm" version="1.1" style="shape-rendering:geometricPrecision; text-rendering:geometricPrecision; image-rendering:optimizeQuality; fill-rule:evenodd; clip-rule:evenodd"
viewBox="0 0 2010.82 1190.62"
 xmlns:xlink="http://www.w3.org/1999/xlink">
 <defs>
  <style type="text/css">
   <![CDATA[
    .str3 {stroke:#FEFEFE;stroke-width:4.5;stroke-miterlimit:22.9256}
    .str0 {stroke:white;stroke-width:20;stroke-miterlimit:22.9256}
    .str2 {stroke:#FEFEFE;stroke-width:10;stroke-miterlimit:22.9256}
    .str1 {stroke:#FEFEFE;stroke-width:7.62;stroke-miterlimit:22.9256}
    .fil1 {fill:none}
    .fil3 {fill:#FEFEFE}
    .fil0 {fill:#FEFEFE}
    .fil2 {fill:white}
   ]]>
  </style>
 </defs>
 <g id="Capa_x0020_1">
  <metadata id="CorelCorpID_0Corel-Layer"/>
  <path class="fil0 str0" d="M1221.47 732.26l0.69 43.53c11.7,-8.36 23.4,-16.71 35.09,-25.07 223.55,0 447.09,0 670.63,0 -76.9,54.03 -153.82,108.06 -230.73,162.09 -95.18,-0.04 -190.38,-0.1 -285.56,-0.14 -8.76,6.15 -17.53,12.29 -26.29,18.45 95.19,0.03 190.38,0.08 285.57,0.11 -76.41,53.67 -152.8,107.33 -229.21,160.99 -221.33,0.35 -442.68,0.7 -664.01,1.04 22.54,-16.09 45.06,-32.17 67.59,-48.26 -12.45,-0.01 -24.9,-0.01 -37.36,-0.02 -22.55,16.11 -45.12,32.23 -67.69,48.34 -220.33,0.34 -440.67,0.68 -661.01,1.03 77.59,-54.56 155.17,-109.1 232.76,-163.66 106.76,0.04 213.53,0.07 320.3,0.11 8.72,-6.13 17.45,-12.27 26.17,-18.4 -106.76,-0.04 -213.51,-0.09 -320.25,-0.13 76.58,-53.85 153.17,-107.69 229.76,-161.53 56.1,0 112.2,-0.02 168.3,-0.02 0,-6.15 0,-12.32 0,-18.47 -59.98,0 -119.95,0 -179.93,0 -180.38,126.88 -360.77,253.76 -541.15,380.64 479.32,-0.74 958.65,-1.5 1437.97,-2.24 179.57,-126.12 359.14,-252.24 538.71,-378.37 -256.78,-0.01 -513.57,-0.01 -770.35,-0.02z"/>
  <g id="_2180163152784">
   <line class="fil1 str1" x1="814.34" y1="922.82" x2="814.29" y2= "936.01" />
  </g>
  <path class="fil1 str0" d="M736.22 664.86l355.39 0 130.72 -66.58m-486.03 76.66l-0.08 -10.21 133.35 -66.84 352.76 0.39 -0.31 325.55 -130.41 66.12 -224.23 0.06 0.03 -135.76 -74.89 0 -0.03 135.68 -56.27 0.02 0 -278.31m355.39 -46.91l0 325.22"/>
  <rect class="fil1 str2" x="906.97" y="849.39" width="134.87" height="89.25"/>
  <path class="fil2 str1" d="M1096.56 664.74l-89.56 -0.19 -17.51 23.77c-9.62,13.07 -6.74,23.78 6.42,23.81l41.73 0.09c13.16,0.03 31.79,-10.64 41.41,-23.7l17.51 -23.78z"/>
  <path class="fil1 str1" d="M1006.48 664.35l-89.56 -0.2 -17.5 23.78c-9.62,13.06 -6.75,23.78 6.41,23.81l41.73 0.09c13.16,0.03 31.78,-10.64 41.41,-23.7l17.51 -23.78z"/>
  <path class="fil0 str1" d="M916.04 664.35l-89.56 -0.2 -17.51 23.78c-9.63,13.06 -6.75,23.78 6.41,23.81l41.73 0.09c13.16,0.03 31.79,-10.64 41.42,-23.7l17.51 -23.78z"/>
  <path class="fil1 str1" d="M826.09 664.24l-89.55 -0.2 -17.51 23.77c-9.63,13.07 -6.76,23.79 6.4,23.81l41.74 0.1c13.16,0.03 31.79,-10.64 41.41,-23.71l17.51 -23.77z"/>
  <rect class="fil1 str3" transform="matrix(0.892966 -0.450124 0.00531792 1.11718 1142.25 697.819)" width="36.28" height="55.15"/>
  <g id="_2180163148912">
   <line class="fil1 str1" x1="865.98" y1="993.58" x2="793.73" y2= "993.58" />
  </g>
  <path class="fil3" d="M1104.69 203.26c0,-46.61 -43.46,-84.38 -97.06,-84.38 -53.6,0 -97.06,37.77 -97.06,84.38 0,46.6 43.46,84.37 97.06,84.37 53.6,0 97.06,-37.77 97.06,-84.37zm-98.99 264.84c-5.52,-0.49 -9.87,-2.69 -15.45,-10.22 -5.58,-7.53 -16.32,-20.25 -16.32,-20.25l-33.76 -41.93 -49.19 -60.82 -35.14 -44.61c0,0 -16.45,-22 -21.77,-44.31 -5.31,-22.31 -6.68,-43.26 1.04,-72.04 7.71,-28.8 27.59,-57.43 47.81,-74.76 20.23,-17.33 58.45,-40.4 111.25,-43.11 52.79,-2.72 85.52,11.45 108.5,24.87 22.96,13.41 54.68,44.01 65.99,73.7 11.3,29.69 12.16,39.64 12.34,63.76 0.16,24.11 -8.4,41.74 -15.09,55.91 -6.68,14.17 -20.73,28.64 -35.99,48.69 -15.26,20.04 -69.93,86.96 -69.93,86.96l-35.65 43.86c-8.84,12.06 -12.28,14 -18.64,14.3z"/>
 </g>
</svg>
